<svg id="Layer_5" enable-background="new 0 0 64 64" height="512" viewBox="0 0 64 64" width="512" xmlns="http://www.w3.org/2000/svg"><path d="m56.3 1-3.68 10.119c-2.439-2.354-8.823-7.119-20.62-7.119s-18.181 4.765-20.62 7.119l-3.68-10.119h-4.7v15c0 1.627.793 3.061 2 3.974v5.026h4v29h2.105l.703 6.331c.17 1.522 1.452 2.669 2.982 2.669h34.42c1.53 0 2.812-1.147 2.981-2.669l.704-6.331h2.105v-29h4v-5.026c1.207-.914 2-2.348 2-3.974v-15zm-6.375 10.462c-3.872-.598-10.708-1.462-17.925-1.462-7.23 0-14.08.867-17.947 1.465 2.855-2.248 8.565-5.465 17.947-5.465 9.328 0 15.052 3.213 17.925 5.462zm3.075 27.538v6h-2v-6zm-4 6h-2v-6h2zm-4 0h-2v-6h2zm-4 0h-2v-6h2zm-4 0h-2v-6h2zm-4 0h-2v-6h2zm-4 0h-2v-6h2zm-4 0h-2v-6h2zm-4 0h-2v-6h2zm-4 0h-2v-6h2zm-4 0h-2v-6h2zm37.204 15.11c-.057.507-.484.89-.994.89h-34.42c-.51 0-.938-.383-.994-.89l-.679-6.11h37.766zm-39.204-8.11v-5h42v5zm42-15h-42v-12h42zm4-14h-50v-2.101c.323.066.658.101 1 .101h48c.342 0 .677-.035 1-.101zm2-7c0 1.654-1.346 3-3 3h-48c-1.654 0-3-1.346-3-3v-13h1.3l4.054 11.149.842-.168c.099-.02 10.037-1.981 20.804-1.981s20.705 1.961 20.804 1.98l.842.168 4.054-11.148h1.3z"/><path d="m47 35v-8h-30v8zm-28-6h26v4h-26z"/><path d="m46 56h2v2h-2z"/><path d="m32 56h12v2h-12z"/></svg>